<?xml version="1.0" encoding="UTF-8"?>
<svg xmlns="http://www.w3.org/2000/svg" xmlns:xlink="http://www.w3.org/1999/xlink" width="9pt" height="9pt" viewBox="0 0 9 9" version="1.1">
<g id="surface1">
<path style=" stroke:none;fill-rule:evenodd;fill:rgb(3.529412%,58.823529%,98.823529%);fill-opacity:1;" d="M 7.902344 1.582031 C 7.902344 1.585938 7.878906 1.59375 7.851562 1.601562 C 7.824219 1.605469 7.804688 1.613281 7.804688 1.617188 C 7.804688 1.621094 7.789062 1.628906 7.773438 1.636719 C 7.757812 1.644531 7.726562 1.667969 7.703125 1.695312 C 7.679688 1.71875 7.65625 1.738281 7.652344 1.738281 C 7.648438 1.738281 7.636719 1.746094 7.625 1.757812 C 7.613281 1.773438 7.597656 1.78125 7.589844 1.78125 C 7.585938 1.78125 7.578125 1.789062 7.574219 1.796875 C 7.570312 1.804688 7.566406 1.808594 7.558594 1.808594 C 7.546875 1.808594 7.488281 1.871094 7.488281 1.886719 C 7.488281 1.894531 7.484375 1.898438 7.480469 1.898438 C 7.472656 1.898438 7.46875 1.90625 7.464844 1.914062 C 7.457031 1.929688 7.425781 1.96875 7.335938 2.058594 C 7.300781 2.09375 7.273438 2.128906 7.273438 2.132812 C 7.273438 2.136719 7.265625 2.148438 7.253906 2.152344 C 7.246094 2.160156 7.234375 2.175781 7.226562 2.191406 C 7.222656 2.203125 7.214844 2.214844 7.210938 2.214844 C 7.203125 2.214844 7.199219 2.21875 7.199219 2.222656 C 7.199219 2.234375 7.117188 2.320312 7.105469 2.320312 C 7.097656 2.320312 7.019531 2.402344 7.019531 2.40625 C 7.019531 2.410156 6.988281 2.445312 6.949219 2.484375 C 6.910156 2.527344 6.875 2.5625 6.875 2.570312 C 6.875 2.578125 6.871094 2.582031 6.867188 2.582031 C 6.863281 2.582031 6.851562 2.59375 6.847656 2.609375 C 6.84375 2.625 6.835938 2.636719 6.832031 2.636719 C 6.824219 2.636719 6.820312 2.644531 6.820312 2.648438 C 6.820312 2.664062 6.765625 2.722656 6.742188 2.730469 C 6.730469 2.734375 6.722656 2.742188 6.722656 2.746094 C 6.722656 2.75 6.710938 2.757812 6.699219 2.761719 C 6.6875 2.769531 6.679688 2.777344 6.679688 2.785156 C 6.679688 2.792969 6.675781 2.800781 6.667969 2.800781 C 6.664062 2.800781 6.65625 2.808594 6.648438 2.824219 C 6.644531 2.835938 6.632812 2.851562 6.625 2.855469 C 6.621094 2.859375 6.613281 2.867188 6.613281 2.875 C 6.613281 2.882812 6.605469 2.894531 6.59375 2.898438 C 6.582031 2.902344 6.570312 2.910156 6.570312 2.914062 C 6.570312 2.921875 6.566406 2.925781 6.558594 2.925781 C 6.550781 2.925781 6.539062 2.933594 6.527344 2.941406 C 6.515625 2.953125 6.503906 2.960938 6.5 2.960938 C 6.492188 2.960938 6.484375 2.972656 6.480469 2.984375 C 6.476562 2.996094 6.46875 3.007812 6.464844 3.007812 C 6.457031 3.007812 6.449219 3.019531 6.441406 3.035156 C 6.4375 3.050781 6.421875 3.074219 6.410156 3.085938 C 6.320312 3.164062 6.28125 3.207031 6.273438 3.230469 C 6.261719 3.257812 6.179688 3.347656 6.164062 3.347656 C 6.15625 3.347656 6.09375 3.410156 6.09375 3.421875 C 6.09375 3.425781 6.085938 3.4375 6.078125 3.445312 C 6.070312 3.453125 6.054688 3.472656 6.042969 3.484375 C 6.035156 3.5 6.023438 3.511719 6.015625 3.511719 C 6.007812 3.511719 6 3.515625 5.996094 3.523438 C 5.996094 3.53125 5.984375 3.539062 5.976562 3.542969 C 5.953125 3.550781 5.894531 3.609375 5.894531 3.625 C 5.894531 3.628906 5.890625 3.640625 5.882812 3.640625 C 5.875 3.644531 5.867188 3.652344 5.867188 3.660156 C 5.867188 3.667969 5.863281 3.675781 5.855469 3.679688 C 5.847656 3.679688 5.839844 3.6875 5.839844 3.691406 C 5.839844 3.703125 5.792969 3.753906 5.78125 3.753906 C 5.773438 3.753906 5.738281 3.792969 5.722656 3.820312 C 5.714844 3.835938 5.699219 3.859375 5.6875 3.871094 C 5.675781 3.886719 5.652344 3.910156 5.636719 3.929688 C 5.625 3.945312 5.609375 3.960938 5.605469 3.960938 C 5.597656 3.960938 5.527344 4.027344 5.527344 4.035156 C 5.527344 4.042969 5.414062 4.15625 5.402344 4.15625 C 5.390625 4.15625 5.320312 4.238281 5.320312 4.25 C 5.320312 4.257812 5.3125 4.273438 5.300781 4.285156 C 5.292969 4.296875 5.28125 4.308594 5.28125 4.316406 C 5.28125 4.324219 5.277344 4.332031 5.269531 4.335938 C 5.261719 4.335938 5.253906 4.351562 5.25 4.363281 C 5.25 4.375 5.226562 4.40625 5.203125 4.425781 C 5.179688 4.445312 5.140625 4.480469 5.117188 4.503906 C 5.09375 4.527344 5.070312 4.546875 5.066406 4.546875 C 5.0625 4.546875 5.058594 4.550781 5.058594 4.558594 C 5.058594 4.570312 4.964844 4.671875 4.953125 4.671875 C 4.949219 4.671875 4.9375 4.679688 4.925781 4.695312 C 4.914062 4.707031 4.898438 4.714844 4.898438 4.714844 C 4.894531 4.714844 4.882812 4.726562 4.878906 4.742188 C 4.871094 4.753906 4.859375 4.773438 4.851562 4.78125 C 4.84375 4.789062 4.828125 4.804688 4.820312 4.816406 C 4.8125 4.832031 4.800781 4.84375 4.792969 4.84375 C 4.785156 4.84375 4.746094 4.878906 4.738281 4.898438 C 4.738281 4.90625 4.730469 4.914062 4.726562 4.914062 C 4.722656 4.914062 4.714844 4.929688 4.707031 4.945312 C 4.699219 4.960938 4.691406 4.976562 4.6875 4.976562 C 4.6875 4.976562 4.679688 4.992188 4.671875 5.007812 C 4.664062 5.023438 4.648438 5.042969 4.636719 5.046875 C 4.613281 5.058594 4.597656 5.070312 4.574219 5.097656 C 4.566406 5.105469 4.554688 5.113281 4.546875 5.113281 C 4.539062 5.113281 4.53125 5.117188 4.53125 5.128906 C 4.527344 5.136719 4.515625 5.148438 4.507812 5.15625 C 4.480469 5.1875 4.464844 5.214844 4.464844 5.226562 C 4.464844 5.234375 4.453125 5.242188 4.441406 5.246094 C 4.414062 5.257812 4.402344 5.265625 4.359375 5.3125 C 4.3125 5.355469 4.304688 5.367188 4.296875 5.390625 C 4.292969 5.410156 4.226562 5.480469 4.175781 5.515625 C 4.160156 5.527344 4.148438 5.542969 4.148438 5.550781 C 4.148438 5.554688 4.144531 5.5625 4.140625 5.5625 C 4.136719 5.5625 4.132812 5.566406 4.132812 5.574219 C 4.132812 5.578125 4.121094 5.597656 4.109375 5.609375 C 4.097656 5.625 4.085938 5.640625 4.085938 5.644531 C 4.085938 5.648438 4.074219 5.65625 4.058594 5.660156 C 4.046875 5.667969 4.03125 5.675781 4.027344 5.683594 C 4.027344 5.691406 4.019531 5.695312 4.015625 5.695312 C 4.003906 5.695312 3.941406 5.761719 3.941406 5.773438 C 3.941406 5.78125 3.933594 5.789062 3.921875 5.796875 C 3.910156 5.800781 3.894531 5.816406 3.890625 5.832031 C 3.882812 5.847656 3.871094 5.859375 3.863281 5.859375 C 3.855469 5.859375 3.847656 5.863281 3.847656 5.871094 C 3.84375 5.878906 3.835938 5.886719 3.824219 5.890625 C 3.800781 5.898438 3.753906 5.945312 3.75 5.96875 C 3.746094 5.980469 3.738281 5.996094 3.730469 5.996094 C 3.722656 6 3.71875 6.007812 3.71875 6.011719 C 3.71875 6.058594 3.597656 6.121094 3.582031 6.085938 C 3.582031 6.082031 3.5625 6.070312 3.542969 6.066406 C 3.519531 6.058594 3.5 6.050781 3.5 6.046875 C 3.5 6.042969 3.496094 6.039062 3.488281 6.039062 C 3.480469 6.039062 3.472656 6.03125 3.46875 6.027344 C 3.464844 6.019531 3.457031 6.011719 3.453125 6.011719 C 3.4375 6.011719 3.375 5.957031 3.375 5.945312 C 3.375 5.9375 3.363281 5.925781 3.351562 5.914062 C 3.339844 5.902344 3.328125 5.890625 3.328125 5.882812 C 3.328125 5.875 3.277344 5.824219 3.265625 5.824219 C 3.253906 5.824219 3.207031 5.769531 3.199219 5.75 C 3.195312 5.742188 3.191406 5.734375 3.183594 5.734375 C 3.179688 5.734375 3.171875 5.722656 3.167969 5.710938 C 3.164062 5.699219 3.15625 5.6875 3.148438 5.6875 C 3.144531 5.6875 3.140625 5.683594 3.140625 5.675781 C 3.140625 5.667969 3.136719 5.660156 3.128906 5.65625 C 3.125 5.652344 3.113281 5.636719 3.105469 5.621094 C 3.089844 5.59375 3.03125 5.527344 3.019531 5.527344 C 3.011719 5.527344 2.898438 5.414062 2.898438 5.402344 C 2.898438 5.398438 2.878906 5.378906 2.855469 5.359375 C 2.777344 5.292969 2.699219 5.214844 2.699219 5.203125 C 2.699219 5.199219 2.6875 5.183594 2.667969 5.167969 C 2.605469 5.121094 2.558594 5.070312 2.554688 5.054688 C 2.550781 5.046875 2.542969 5.039062 2.539062 5.039062 C 2.535156 5.039062 2.527344 5.027344 2.519531 5.011719 C 2.515625 5 2.503906 4.984375 2.5 4.984375 C 2.496094 4.984375 2.492188 4.976562 2.488281 4.96875 C 2.484375 4.957031 2.472656 4.945312 2.457031 4.941406 C 2.441406 4.933594 2.425781 4.917969 2.421875 4.90625 C 2.414062 4.894531 2.40625 4.886719 2.402344 4.886719 C 2.398438 4.886719 2.390625 4.875 2.386719 4.863281 C 2.378906 4.851562 2.375 4.84375 2.367188 4.84375 C 2.363281 4.84375 2.355469 4.828125 2.347656 4.8125 C 2.34375 4.792969 2.328125 4.777344 2.316406 4.769531 C 2.304688 4.765625 2.292969 4.75 2.285156 4.738281 C 2.277344 4.726562 2.269531 4.714844 2.265625 4.714844 C 2.257812 4.714844 2.246094 4.707031 2.234375 4.699219 C 2.226562 4.691406 2.207031 4.675781 2.199219 4.671875 C 2.1875 4.667969 2.179688 4.65625 2.179688 4.652344 C 2.179688 4.648438 2.171875 4.636719 2.164062 4.628906 C 2.152344 4.617188 2.136719 4.597656 2.128906 4.585938 C 2.105469 4.550781 2.078125 4.527344 2.066406 4.527344 C 2.0625 4.527344 2.050781 4.519531 2.046875 4.507812 C 2.039062 4.5 2.03125 4.492188 2.023438 4.492188 C 2.011719 4.492188 1.980469 4.460938 1.980469 4.449219 C 1.980469 4.441406 1.972656 4.433594 1.96875 4.429688 C 1.960938 4.429688 1.953125 4.417969 1.949219 4.410156 C 1.941406 4.390625 1.882812 4.328125 1.871094 4.328125 C 1.855469 4.328125 1.773438 4.238281 1.769531 4.21875 C 1.765625 4.203125 1.757812 4.191406 1.75 4.191406 C 1.742188 4.1875 1.738281 4.179688 1.738281 4.171875 C 1.738281 4.160156 1.710938 4.136719 1.675781 4.121094 C 1.660156 4.113281 1.644531 4.101562 1.636719 4.089844 C 1.632812 4.078125 1.621094 4.066406 1.613281 4.066406 C 1.605469 4.066406 1.597656 4.0625 1.59375 4.050781 C 1.59375 4.042969 1.574219 4.023438 1.558594 4.011719 C 1.542969 3.996094 1.519531 3.976562 1.511719 3.964844 C 1.503906 3.957031 1.496094 3.949219 1.488281 3.949219 C 1.480469 3.949219 1.476562 3.945312 1.472656 3.941406 C 1.464844 3.914062 1.082031 3.914062 1.050781 3.941406 C 1.003906 3.980469 0.953125 4.03125 0.953125 4.042969 C 0.953125 4.050781 0.945312 4.0625 0.9375 4.070312 C 0.929688 4.078125 0.914062 4.089844 0.90625 4.101562 C 0.898438 4.109375 0.882812 4.128906 0.871094 4.140625 C 0.855469 4.148438 0.847656 4.164062 0.847656 4.171875 C 0.847656 4.179688 0.839844 4.183594 0.832031 4.1875 C 0.824219 4.191406 0.816406 4.214844 0.8125 4.246094 C 0.808594 4.273438 0.804688 4.300781 0.800781 4.304688 C 0.789062 4.308594 0.785156 4.480469 0.796875 4.488281 C 0.804688 4.492188 0.8125 4.523438 0.816406 4.554688 C 0.824219 4.613281 0.863281 4.671875 0.894531 4.671875 C 0.90625 4.671875 0.949219 4.71875 0.957031 4.742188 C 0.960938 4.753906 0.96875 4.761719 0.972656 4.761719 C 0.976562 4.761719 0.980469 4.769531 0.984375 4.777344 C 0.992188 4.800781 1.0625 4.878906 1.074219 4.878906 C 1.085938 4.878906 1.160156 4.957031 1.164062 4.976562 C 1.167969 4.988281 1.175781 5.003906 1.183594 5.007812 C 1.1875 5.015625 1.199219 5.027344 1.207031 5.039062 C 1.21875 5.058594 1.246094 5.089844 1.289062 5.125 C 1.296875 5.132812 1.308594 5.140625 1.3125 5.140625 C 1.320312 5.140625 1.328125 5.148438 1.332031 5.160156 C 1.335938 5.175781 1.34375 5.183594 1.351562 5.183594 C 1.355469 5.183594 1.359375 5.191406 1.359375 5.199219 C 1.359375 5.207031 1.363281 5.214844 1.371094 5.214844 C 1.378906 5.21875 1.390625 5.234375 1.394531 5.246094 C 1.402344 5.261719 1.410156 5.273438 1.417969 5.273438 C 1.421875 5.273438 1.4375 5.285156 1.453125 5.296875 C 1.46875 5.308594 1.480469 5.320312 1.484375 5.320312 C 1.492188 5.320312 1.519531 5.34375 1.546875 5.375 C 1.550781 5.382812 1.558594 5.394531 1.558594 5.398438 C 1.558594 5.402344 1.5625 5.414062 1.574219 5.417969 C 1.582031 5.425781 1.59375 5.4375 1.59375 5.445312 C 1.597656 5.457031 1.605469 5.464844 1.613281 5.464844 C 1.621094 5.464844 1.628906 5.472656 1.636719 5.480469 C 1.640625 5.492188 1.652344 5.5 1.660156 5.5 C 1.667969 5.5 1.675781 5.503906 1.675781 5.507812 C 1.675781 5.511719 1.6875 5.523438 1.699219 5.527344 C 1.714844 5.53125 1.726562 5.542969 1.730469 5.554688 C 1.734375 5.566406 1.746094 5.589844 1.757812 5.601562 C 1.773438 5.617188 1.78125 5.632812 1.78125 5.640625 C 1.78125 5.644531 1.792969 5.65625 1.808594 5.660156 C 1.824219 5.667969 1.835938 5.675781 1.839844 5.683594 C 1.84375 5.691406 1.847656 5.695312 1.855469 5.695312 C 1.871094 5.695312 1.933594 5.765625 1.945312 5.800781 C 1.953125 5.816406 1.960938 5.832031 1.964844 5.832031 C 1.96875 5.832031 1.976562 5.84375 1.980469 5.859375 C 1.988281 5.875 1.992188 5.886719 1.996094 5.886719 C 2.007812 5.886719 2.125 6.003906 2.125 6.011719 C 2.125 6.023438 2.203125 6.101562 2.214844 6.101562 C 2.222656 6.101562 2.320312 6.199219 2.320312 6.210938 C 2.320312 6.222656 2.398438 6.292969 2.421875 6.308594 C 2.4375 6.316406 2.449219 6.328125 2.457031 6.339844 C 2.464844 6.351562 2.476562 6.367188 2.488281 6.371094 C 2.5 6.378906 2.511719 6.390625 2.515625 6.398438 C 2.523438 6.421875 2.589844 6.488281 2.605469 6.488281 C 2.609375 6.488281 2.621094 6.5 2.628906 6.511719 C 2.632812 6.523438 2.648438 6.539062 2.660156 6.542969 C 2.671875 6.550781 2.6875 6.566406 2.691406 6.582031 C 2.699219 6.59375 2.707031 6.605469 2.710938 6.605469 C 2.714844 6.605469 2.722656 6.617188 2.726562 6.632812 C 2.734375 6.648438 2.742188 6.660156 2.746094 6.660156 C 2.746094 6.660156 2.753906 6.675781 2.761719 6.691406 C 2.769531 6.707031 2.777344 6.722656 2.78125 6.722656 C 2.785156 6.722656 2.789062 6.726562 2.789062 6.734375 C 2.789062 6.742188 2.863281 6.820312 2.875 6.820312 C 2.882812 6.820312 3.042969 6.992188 3.042969 7.003906 C 3.042969 7.007812 3.050781 7.011719 3.058594 7.015625 C 3.078125 7.019531 3.167969 7.105469 3.167969 7.117188 C 3.167969 7.121094 3.175781 7.128906 3.183594 7.136719 C 3.191406 7.148438 3.210938 7.164062 3.21875 7.175781 C 3.230469 7.191406 3.246094 7.199219 3.253906 7.199219 C 3.261719 7.199219 3.265625 7.203125 3.265625 7.207031 C 3.265625 7.210938 3.28125 7.222656 3.300781 7.226562 C 3.320312 7.234375 3.335938 7.242188 3.339844 7.25 C 3.34375 7.257812 3.359375 7.265625 3.375 7.265625 C 3.390625 7.269531 3.402344 7.277344 3.402344 7.28125 C 3.402344 7.285156 3.433594 7.292969 3.46875 7.300781 C 3.507812 7.304688 3.535156 7.3125 3.535156 7.316406 C 3.535156 7.320312 3.554688 7.328125 3.574219 7.332031 C 3.59375 7.332031 3.609375 7.339844 3.609375 7.34375 C 3.609375 7.355469 3.625 7.355469 3.636719 7.34375 C 3.683594 7.304688 3.695312 7.296875 3.722656 7.292969 C 3.738281 7.289062 3.753906 7.285156 3.753906 7.28125 C 3.753906 7.277344 3.777344 7.269531 3.808594 7.261719 C 3.835938 7.257812 3.859375 7.25 3.859375 7.246094 C 3.859375 7.242188 3.875 7.234375 3.890625 7.226562 C 3.90625 7.21875 3.949219 7.1875 3.984375 7.152344 C 4.019531 7.117188 4.058594 7.078125 4.070312 7.070312 C 4.109375 7.042969 4.144531 7.007812 4.15625 6.980469 C 4.160156 6.96875 4.171875 6.957031 4.175781 6.957031 C 4.179688 6.957031 4.183594 6.949219 4.1875 6.9375 C 4.191406 6.929688 4.199219 6.917969 4.207031 6.914062 C 4.230469 6.90625 4.265625 6.871094 4.265625 6.859375 C 4.265625 6.855469 4.269531 6.847656 4.277344 6.847656 C 4.28125 6.847656 4.289062 6.835938 4.292969 6.820312 C 4.300781 6.808594 4.308594 6.796875 4.3125 6.796875 C 4.316406 6.796875 4.324219 6.78125 4.328125 6.769531 C 4.332031 6.753906 4.339844 6.742188 4.347656 6.742188 C 4.351562 6.742188 4.355469 6.734375 4.355469 6.726562 C 4.355469 6.71875 4.363281 6.710938 4.371094 6.707031 C 4.378906 6.703125 4.390625 6.695312 4.394531 6.691406 C 4.398438 6.683594 4.40625 6.679688 4.410156 6.679688 C 4.417969 6.679688 4.4375 6.664062 4.476562 6.625 C 4.511719 6.589844 4.523438 6.574219 4.535156 6.542969 C 4.542969 6.527344 4.558594 6.511719 4.566406 6.511719 C 4.578125 6.507812 4.589844 6.496094 4.597656 6.488281 C 4.605469 6.476562 4.613281 6.472656 4.617188 6.472656 C 4.632812 6.472656 4.695312 6.402344 4.707031 6.375 C 4.710938 6.359375 4.722656 6.34375 4.726562 6.34375 C 4.730469 6.34375 4.734375 6.339844 4.734375 6.335938 C 4.734375 6.324219 4.8125 6.246094 4.824219 6.246094 C 4.835938 6.246094 4.863281 6.207031 4.875 6.175781 C 4.882812 6.160156 4.894531 6.144531 4.902344 6.144531 C 4.910156 6.140625 4.914062 6.132812 4.914062 6.125 C 4.914062 6.121094 4.925781 6.109375 4.9375 6.101562 C 4.953125 6.09375 4.96875 6.082031 4.976562 6.074219 C 4.980469 6.0625 4.992188 6.058594 4.996094 6.058594 C 5.007812 6.058594 5.070312 5.988281 5.078125 5.972656 C 5.082031 5.964844 5.089844 5.957031 5.09375 5.957031 C 5.097656 5.957031 5.105469 5.945312 5.113281 5.933594 C 5.117188 5.917969 5.132812 5.902344 5.148438 5.894531 C 5.164062 5.890625 5.175781 5.878906 5.179688 5.871094 C 5.179688 5.863281 5.1875 5.859375 5.191406 5.859375 C 5.203125 5.859375 5.230469 5.832031 5.261719 5.792969 C 5.269531 5.785156 5.277344 5.769531 5.277344 5.753906 C 5.28125 5.742188 5.289062 5.730469 5.296875 5.726562 C 5.304688 5.722656 5.308594 5.71875 5.308594 5.710938 C 5.308594 5.699219 5.339844 5.667969 5.417969 5.59375 C 5.4375 5.578125 5.453125 5.558594 5.453125 5.550781 C 5.453125 5.539062 5.539062 5.453125 5.550781 5.453125 C 5.5625 5.453125 5.632812 5.382812 5.632812 5.371094 C 5.632812 5.367188 5.644531 5.351562 5.660156 5.335938 C 5.675781 5.324219 5.6875 5.308594 5.6875 5.304688 C 5.6875 5.300781 5.703125 5.285156 5.71875 5.269531 C 5.789062 5.210938 5.839844 5.152344 5.839844 5.132812 C 5.839844 5.128906 5.847656 5.121094 5.855469 5.117188 C 5.863281 5.113281 5.867188 5.105469 5.867188 5.097656 C 5.867188 5.089844 5.871094 5.085938 5.878906 5.085938 C 5.882812 5.085938 5.890625 5.074219 5.894531 5.0625 C 5.898438 5.050781 5.90625 5.039062 5.914062 5.039062 C 5.917969 5.039062 5.921875 5.035156 5.921875 5.027344 C 5.921875 5.015625 6 4.933594 6.011719 4.933594 C 6.023438 4.933594 6.089844 4.863281 6.101562 4.839844 C 6.109375 4.828125 6.128906 4.808594 6.144531 4.792969 C 6.160156 4.777344 6.183594 4.757812 6.191406 4.75 C 6.199219 4.738281 6.21875 4.71875 6.238281 4.699219 C 6.257812 4.679688 6.273438 4.65625 6.277344 4.644531 C 6.28125 4.636719 6.285156 4.625 6.292969 4.625 C 6.296875 4.625 6.300781 4.621094 6.300781 4.613281 C 6.300781 4.601562 6.371094 4.527344 6.382812 4.527344 C 6.394531 4.527344 6.453125 4.460938 6.453125 4.449219 C 6.453125 4.441406 6.457031 4.4375 6.460938 4.4375 C 6.46875 4.4375 6.476562 4.425781 6.480469 4.414062 C 6.484375 4.402344 6.492188 4.390625 6.496094 4.390625 C 6.5 4.390625 6.507812 4.382812 6.507812 4.375 C 6.511719 4.363281 6.519531 4.355469 6.527344 4.355469 C 6.535156 4.355469 6.542969 4.351562 6.542969 4.347656 C 6.542969 4.339844 6.554688 4.332031 6.566406 4.328125 C 6.578125 4.324219 6.589844 4.316406 6.589844 4.3125 C 6.589844 4.308594 6.601562 4.300781 6.613281 4.292969 C 6.628906 4.285156 6.640625 4.277344 6.640625 4.269531 C 6.640625 4.261719 6.648438 4.25 6.660156 4.238281 C 6.667969 4.230469 6.679688 4.21875 6.679688 4.210938 C 6.679688 4.207031 6.683594 4.199219 6.691406 4.195312 C 6.699219 4.195312 6.703125 4.1875 6.703125 4.179688 C 6.703125 4.171875 6.714844 4.164062 6.726562 4.160156 C 6.738281 4.152344 6.75 4.144531 6.753906 4.136719 C 6.757812 4.128906 6.761719 4.121094 6.769531 4.121094 C 6.785156 4.121094 6.820312 4.082031 6.820312 4.070312 C 6.820312 4.066406 6.828125 4.058594 6.835938 4.054688 C 6.839844 4.054688 6.847656 4.039062 6.851562 4.027344 C 6.859375 3.992188 6.917969 3.929688 6.996094 3.867188 C 7.015625 3.851562 7.027344 3.835938 7.027344 3.832031 C 7.027344 3.828125 7.035156 3.816406 7.046875 3.808594 C 7.058594 3.796875 7.066406 3.785156 7.066406 3.777344 C 7.066406 3.769531 7.074219 3.757812 7.089844 3.753906 C 7.101562 3.746094 7.121094 3.730469 7.125 3.722656 C 7.132812 3.714844 7.140625 3.707031 7.148438 3.707031 C 7.160156 3.707031 7.226562 3.640625 7.226562 3.628906 C 7.226562 3.625 7.230469 3.617188 7.238281 3.613281 C 7.246094 3.609375 7.253906 3.59375 7.261719 3.578125 C 7.277344 3.546875 7.320312 3.5 7.335938 3.5 C 7.347656 3.5 7.398438 3.445312 7.398438 3.433594 C 7.398438 3.425781 7.40625 3.410156 7.421875 3.398438 C 7.433594 3.382812 7.441406 3.367188 7.441406 3.359375 C 7.441406 3.351562 7.445312 3.347656 7.449219 3.347656 C 7.457031 3.347656 7.46875 3.339844 7.480469 3.324219 C 7.492188 3.3125 7.503906 3.304688 7.507812 3.304688 C 7.519531 3.304688 7.605469 3.210938 7.609375 3.195312 C 7.613281 3.1875 7.625 3.175781 7.636719 3.167969 C 7.648438 3.164062 7.664062 3.148438 7.667969 3.136719 C 7.675781 3.125 7.6875 3.113281 7.695312 3.109375 C 7.71875 3.101562 7.785156 3.035156 7.785156 3.019531 C 7.785156 3.011719 7.792969 3.003906 7.796875 3.003906 C 7.804688 3 7.8125 2.992188 7.8125 2.984375 C 7.8125 2.976562 7.816406 2.96875 7.820312 2.96875 C 7.828125 2.96875 7.835938 2.960938 7.839844 2.949219 C 7.84375 2.933594 7.851562 2.925781 7.855469 2.925781 C 7.863281 2.925781 7.867188 2.921875 7.867188 2.914062 C 7.867188 2.90625 7.875 2.890625 7.886719 2.878906 C 7.898438 2.863281 7.917969 2.839844 7.929688 2.824219 C 7.941406 2.8125 7.953125 2.800781 7.957031 2.800781 C 7.96875 2.800781 8.019531 2.75 8.019531 2.742188 C 8.019531 2.738281 8.03125 2.722656 8.042969 2.710938 C 8.058594 2.699219 8.074219 2.675781 8.082031 2.660156 C 8.089844 2.648438 8.097656 2.636719 8.101562 2.636719 C 8.105469 2.636719 8.117188 2.625 8.132812 2.609375 C 8.148438 2.59375 8.160156 2.582031 8.164062 2.582031 C 8.175781 2.582031 8.25 2.503906 8.257812 2.484375 C 8.261719 2.476562 8.265625 2.464844 8.273438 2.464844 C 8.277344 2.464844 8.28125 2.460938 8.285156 2.453125 C 8.289062 2.445312 8.3125 2.417969 8.339844 2.390625 C 8.363281 2.367188 8.390625 2.332031 8.394531 2.320312 C 8.394531 2.304688 8.402344 2.296875 8.40625 2.296875 C 8.410156 2.296875 8.417969 2.277344 8.421875 2.253906 C 8.421875 2.230469 8.429688 2.207031 8.4375 2.203125 C 8.453125 2.195312 8.449219 1.871094 8.433594 1.867188 C 8.429688 1.863281 8.425781 1.851562 8.425781 1.839844 C 8.425781 1.828125 8.414062 1.8125 8.40625 1.800781 C 8.394531 1.789062 8.386719 1.777344 8.386719 1.773438 C 8.386719 1.765625 8.335938 1.710938 8.300781 1.6875 C 8.289062 1.675781 8.269531 1.664062 8.261719 1.652344 C 8.253906 1.644531 8.242188 1.636719 8.238281 1.636719 C 8.230469 1.636719 8.222656 1.632812 8.21875 1.625 C 8.21875 1.617188 8.199219 1.605469 8.175781 1.601562 C 8.152344 1.59375 8.136719 1.585938 8.136719 1.582031 C 8.136719 1.578125 8.082031 1.574219 8.019531 1.574219 C 7.953125 1.574219 7.902344 1.578125 7.902344 1.582031 "/>
</g>
</svg>
